# 3ds Max Wavefront OBJ Exporter v0.97b - (c)2007 guruware
# File Created: 14.07.2015 20:49:20

mtllib coffee table.mtl

#
# object 3dSolid
#

v  -159.8502 -111.1978 2666.4700
v  -79.8502 -111.1978 2666.4700
v  -98.8502 -130.1978 2685.4700
v  -140.8502 -130.1978 2685.4700
v  -98.8501 -130.1978 3417.4700
v  -140.8501 -130.1978 3417.4700
v  -159.8501 -111.1978 3436.4700
v  -79.8501 -111.1978 3436.4700
# 8 vertices

vn -0.0000 -0.7071 -0.7071
vn 0.0000 -1.0000 -0.0000
vn -0.7071 -0.7071 0.0000
vn 0.0000 -0.7071 0.7071
vn 0.7071 -0.7071 -0.0000
vn 0.0000 1.0000 -0.0000
# 6 vertex normals

vt 0.9995 1.3154 0.8375
vt 0.9995 1.4250 0.8375
vt 0.9748 1.3990 0.1625
vt 0.9748 1.3414 0.1625
vt 0.0252 1.3990 0.1625
vt 0.0252 1.3414 0.1625
vt 0.0005 1.3154 0.8375
vt 0.0005 1.4250 0.8375
# 8 texture coords

g 3dSolid
usemtl wire_255255255
s 1
f 1/1/1 2/2/1 3/3/1 4/4/1 
s 2
f 5/5/2 6/6/2 4/4/2 3/3/2 
s 4
f 4/4/3 6/6/3 7/7/3 1/1/3 
s 1
f 6/6/4 5/5/4 8/8/4 7/7/4 
s 4
f 2/2/5 8/8/5 5/5/5 3/3/5 
s 2
f 7/1/6 8/2/6 2/8/6 1/7/6 
# 6 polygons

#
# object 3dSolid
#

v  -159.8502 -111.1978 2666.4700
v  -140.8502 -130.1978 2685.4700
v  -140.8502 -460.1978 2685.4700
v  -159.8502 -441.1978 2666.4700
v  -140.8501 -130.1978 3417.4700
v  -140.8501 -460.1978 3417.4700
v  -159.8501 -441.1978 3436.4700
v  -159.8501 -111.1978 3436.4700
# 8 vertices

vn 0.7071 0.0000 -0.7071
vn 1.0000 0.0000 -0.0000
vn -0.7071 -0.7071 0.0000
vn 0.7071 0.7071 -0.0000
vn -1.0000 0.0000 0.0000
vn 0.7071 0.0000 0.7071
# 6 vertex normals

vt 0.9995 0.8813 0.9995
vt 0.9748 0.8398 0.0005
vt 0.9748 0.1187 0.0005
vt 0.9995 0.1602 0.9995
vt 0.0252 0.8398 0.0005
vt 0.0252 0.1187 0.0005
vt 0.0005 0.1602 0.9995
vt 0.0005 0.8813 0.9995
# 8 texture coords

g 3dSolid
usemtl wire_255255255
s 1
f 9/9/7 10/10/7 11/11/7 12/12/7 
s 2
f 13/13/8 14/14/8 11/11/8 10/10/8 
s 4
f 11/14/9 14/11/9 15/12/9 12/15/9 
f 9/9/10 16/16/10 13/13/10 10/10/10 
s 2
f 15/12/11 16/9/11 9/16/11 12/15/11 
s 1
f 16/16/12 15/15/12 14/14/12 13/13/12 
# 6 polygons

#
# object 3dSolid
#

v  -79.8502 -111.1978 2666.4700
v  -79.8502 -521.1978 2666.4700
v  -98.8502 -521.1978 2685.4700
v  -98.8502 -130.1978 2685.4700
v  -98.8501 -521.1978 3417.4700
v  -98.8501 -130.1978 3417.4700
v  -79.8501 -111.1978 3436.4700
v  -79.8501 -521.1978 3436.4700
# 8 vertices

vn -0.7071 0.0000 -0.7071
vn -1.0000 0.0000 0.0000
vn -0.7071 0.7071 0.0000
vn -0.7071 0.0000 0.7071
vn 0.0000 -1.0000 -0.0000
vn 1.0000 0.0000 -0.0000
# 6 vertex normals

vt 0.0332 0.8161 0.0580
vt 0.0332 0.1839 0.0580
vt 0.0562 0.1839 0.9420
vt 0.0562 0.7868 0.9420
vt 0.9438 0.1839 0.9420
vt 0.9438 0.7868 0.9420
vt 0.9668 0.8161 0.0580
vt 0.9668 0.1839 0.0580
vt 0.9420 0.0332 0.1839
vt 0.9420 0.9668 0.1839
vt 0.0580 0.9438 0.1839
vt 0.0580 0.0562 0.1839
# 12 texture coords

g 3dSolid
usemtl wire_255255255
s 1
f 17/17/13 18/18/13 19/19/13 20/20/13 
s 2
f 21/21/14 22/22/14 20/20/14 19/19/14 
s 4
f 20/20/15 22/22/15 23/23/15 17/17/15 
s 1
f 23/23/16 22/22/16 21/21/16 24/24/16 
s 4
f 18/25/17 24/26/17 21/27/17 19/28/17 
s 2
f 23/17/18 24/18/18 18/24/18 17/23/18 
# 6 polygons

#
# object 3dSolid
#

v  -138.8502 -561.1978 2725.4700
v  -138.8502 -521.1978 2725.4700
v  -119.8502 -521.1978 2706.4700
v  -119.8502 -561.1978 2706.4700
v  -138.8501 -561.1978 3377.4700
v  -138.8501 -521.1978 3377.4700
v  -119.8501 -521.1978 3396.4700
v  -119.8501 -561.1978 3396.4700
# 8 vertices

vn -0.7071 0.0000 -0.7071
vn -1.0000 0.0000 0.0000
vn 0.0000 1.0000 -0.0000
vn -0.7071 0.0000 0.7071
vn 0.0000 -1.0000 -0.0000
vn 1.0000 0.0000 -0.0000
# 6 vertex normals

vt 0.0154 0.4539 0.0280
vt 0.0154 0.5461 0.0280
vt 0.0005 0.5461 0.0005
vt 0.0005 0.4539 0.0005
vt 0.9720 0.4539 0.9846
vt 0.9720 0.5461 0.9846
vt 0.0280 0.5461 0.9846
vt 0.0280 0.4539 0.9846
vt 0.0280 0.9846 0.5461
vt 0.9720 0.9846 0.5461
vt 0.9995 0.9995 0.5461
vt 0.0005 0.9995 0.5461
vt 0.9846 0.5461 0.9720
vt 0.9846 0.4539 0.9720
vt 0.9995 0.4539 0.9995
vt 0.9995 0.5461 0.9995
vt 0.0005 0.9995 0.4539
vt 0.0280 0.9846 0.4539
vt 0.9720 0.9846 0.4539
vt 0.9995 0.9995 0.4539
vt 0.0005 0.5461 0.9995
vt 0.0005 0.4539 0.9995
# 22 texture coords

g 3dSolid
usemtl wire_255255255
s 1
f 25/29/19 26/30/19 27/31/19 28/32/19 
s 2
f 29/33/20 30/34/20 26/35/20 25/36/20 
s 4
f 26/37/21 30/38/21 31/39/21 27/40/21 
s 1
f 30/41/22 29/42/22 32/43/22 31/44/22 
s 4
f 32/45/23 29/46/23 25/47/23 28/48/23 
s 2
f 31/49/24 32/50/24 28/43/24 27/44/24 
# 6 polygons

#
# object 3dSolid
#

v  -1349.8505 -159.1978 2666.4700
v  -1349.8503 -159.1978 3436.4700
v  -1349.8503 -140.1978 3417.4700
v  -1349.8505 -140.1978 2685.4700
v  -159.8502 -159.1978 2666.4700
v  -159.8501 -159.1978 3436.4700
v  -159.8502 -140.1978 2685.4700
v  -159.8501 -140.1978 3417.4700
# 8 vertices

vn -1.0000 0.0000 0.0000
vn 0.0000 -1.0000 -0.0000
vn -0.0000 0.7071 -0.7071
vn 0.0000 0.7071 0.7071
vn 1.0000 0.0000 -0.0000
vn 0.0000 1.0000 -0.0000
# 6 vertex normals

vt 0.0005 0.0005 0.9995
vt 0.9995 0.0005 0.9995
vt 0.9748 0.9995 0.9995
vt 0.0252 0.9995 0.9995
vt 0.0005 0.0005 0.0005
vt 0.9995 0.0005 0.0005
vt 0.9995 0.9995 0.0005
vt 0.0005 0.9995 0.0005
vt 0.9995 0.0252 0.9995
vt 0.0005 0.0252 0.9995
vt 0.0005 0.9748 0.9995
vt 0.9995 0.9748 0.9995
vt 0.9748 0.9995 0.0005
vt 0.0252 0.9995 0.0005
# 14 texture coords

g 3dSolid
usemtl wire_255255255
s 1
f 33/51/25 34/52/25 35/53/25 36/54/25 
s 2
f 33/55/26 37/56/26 38/57/26 34/58/26 
s 4
f 36/59/27 39/60/27 37/55/27 33/56/27 
f 34/57/28 38/58/28 40/61/28 35/62/28 
s 1
f 37/56/29 39/63/29 40/64/29 38/55/29 
s 2
f 35/62/30 40/61/30 39/60/30 36/59/30 
# 6 polygons

#
# object 3dSolid
#

v  -138.8502 -521.1978 2725.4700
v  -138.8502 -561.1978 2725.4700
v  -119.8502 -561.1978 2706.4700
v  -119.8502 -521.1978 2706.4700
v  -1370.8503 -521.1978 2725.4700
v  -1370.8503 -561.1978 2725.4700
v  -1389.8503 -561.1978 2706.4700
v  -1389.8503 -521.1978 2706.4700
# 8 vertices

vn 0.7071 0.0000 0.7071
vn 0.0000 0.0000 1.0000
vn 0.0000 -1.0000 -0.0000
vn -0.7071 0.0000 0.7071
vn -0.0000 0.0000 -1.0000
vn 0.0000 1.0000 -0.0000
# 6 vertex normals

vt 0.9846 0.5461 0.0280
vt 0.9846 0.4539 0.0280
vt 0.9995 0.4539 0.0005
vt 0.9995 0.5461 0.0005
vt 0.0154 0.5461 0.0280
vt 0.0154 0.4539 0.0280
vt 0.9720 0.9846 0.4539
vt 0.9720 0.0154 0.4539
vt 0.9995 0.0005 0.4539
vt 0.9995 0.9995 0.4539
vt 0.0005 0.5461 0.0005
vt 0.0005 0.4539 0.0005
vt 0.0005 0.9995 0.5461
vt 0.0005 0.0005 0.5461
vt 0.0280 0.0154 0.5461
vt 0.0280 0.9846 0.5461
# 16 texture coords

g 3dSolid
usemtl wire_255255255
s 1
f 41/65/31 42/66/31 43/67/31 44/68/31 
s 2
f 45/69/32 46/70/32 42/66/32 41/65/32 
s 4
f 42/71/33 46/72/33 47/73/33 43/74/33 
s 1
f 46/70/34 45/69/34 48/75/34 47/76/34 
s 2
f 47/67/35 48/68/35 44/75/35 43/76/35 
s 4
f 44/77/36 48/78/36 45/79/36 41/80/36 
# 6 polygons

#
# object 3dSolid
#

v  -140.8502 -130.1978 2685.4700
v  -98.8502 -130.1978 2685.4700
v  -79.8502 -111.1978 2666.4700
v  -159.8502 -111.1978 2666.4700
v  -98.8502 -521.1978 2685.4700
v  -79.8502 -521.1978 2666.4700
v  -159.8502 -441.1978 2666.4700
v  -140.8502 -460.1978 2685.4700
v  -1349.8503 -441.1978 2666.4700
v  -1368.8503 -460.1978 2685.4700
v  -1410.8503 -130.1978 2685.4700
v  -1410.8503 -521.1978 2685.4700
v  -1368.8503 -130.1978 2685.4700
v  -1349.8503 -111.1978 2666.4700
v  -1429.8503 -111.1978 2666.4700
v  -1429.8503 -521.1978 2666.4700
# 16 vertices

vn 0.0000 0.7071 0.7071
vn 0.7071 0.0000 0.7071
vn -0.7071 0.0000 0.7071
vn 0.0000 0.0000 1.0000
vn 0.0000 -1.0000 -0.0000
vn -0.0000 0.0000 -1.0000
# 6 vertex normals

vt 1.6650 0.8597 0.9995
vt 1.7447 0.8597 0.9995
vt 1.7808 0.8964 0.0005
vt 1.6290 0.8964 0.0005
vt 1.7447 0.1036 0.9995
vt 1.7808 0.1036 0.0005
vt 1.6290 0.2583 0.0005
vt 1.6650 0.2215 0.9995
vt -0.6290 0.2583 0.0005
vt -0.6650 0.2215 0.9995
vt -0.7447 0.8597 0.9995
vt -0.7447 0.1036 0.9995
vt -0.6650 0.8597 0.9995
vt -0.6290 0.8964 0.0005
vt -0.7808 0.8964 0.0005
vt -0.7808 0.1036 0.0005
vt 1.7447 0.9995 0.1036
vt -0.7447 0.9995 0.1036
vt -0.7808 0.0005 0.1036
vt 1.7808 0.0005 0.1036
# 20 texture coords

g 3dSolid
usemtl wire_255255255
s 1
f 49/81/37 50/82/37 51/83/37 52/84/37 
s 2
f 51/83/38 50/82/38 53/85/38 54/86/38 
f 52/84/39 55/87/39 56/88/39 49/81/39 
s 1
f 55/87/37 57/89/37 58/90/37 56/88/37 
s 4
f 58/90/40 59/91/40 60/92/40 56/88/40 
f 61/93/40 59/91/40 58/90/40 
f 60/92/40 53/85/40 50/82/40 56/88/40 
f 50/82/40 49/81/40 56/88/40 
s 1
f 62/94/37 63/95/37 59/91/37 61/93/37 
s 2
f 63/95/39 64/96/39 60/92/39 59/91/39 
f 62/94/38 61/93/38 58/90/38 57/89/38 
s 1
f 53/97/41 60/98/41 64/99/41 54/100/41 
s 4
f 51/95/42 54/96/42 64/86/42 55/89/42 
f 51/95/42 55/89/42 52/94/42 
f 63/83/42 62/84/42 57/87/42 64/86/42 
f 57/87/42 55/89/42 64/86/42 
# 12 polygons - 4 triangles

#
# object 3dSolid
#

v  -138.8502 -561.1978 3377.4700
v  -138.8502 -521.1978 3377.4700
v  -119.8502 -521.1978 3396.4700
v  -119.8502 -561.1978 3396.4700
v  -1370.8503 -561.1978 3377.4700
v  -1370.8503 -521.1978 3377.4700
v  -1389.8503 -561.1978 3396.4700
v  -1389.8503 -521.1978 3396.4700
# 8 vertices

vn 0.7071 0.0000 -0.7071
vn -0.0000 0.0000 -1.0000
vn 0.0000 -1.0000 -0.0000
vn -0.7071 0.0000 -0.7071
vn 0.0000 0.0000 1.0000
vn 0.0000 1.0000 -0.0000
# 6 vertex normals

vt 0.0154 0.4539 0.9720
vt 0.0154 0.5461 0.9720
vt 0.0005 0.5461 0.9995
vt 0.0005 0.4539 0.9995
vt 0.9846 0.4539 0.9720
vt 0.9846 0.5461 0.9720
vt 0.0005 0.9995 0.4539
vt 0.0005 0.0005 0.4539
vt 0.0280 0.0154 0.4539
vt 0.0280 0.9846 0.4539
vt 0.9995 0.4539 0.9995
vt 0.9995 0.5461 0.9995
vt 0.9720 0.9846 0.5461
vt 0.9720 0.0154 0.5461
vt 0.9995 0.0005 0.5461
vt 0.9995 0.9995 0.5461
# 16 texture coords

g 3dSolid
usemtl wire_255255255
s 1
f 65/101/43 66/102/43 67/103/43 68/104/43 
s 2
f 69/105/44 70/106/44 66/102/44 65/101/44 
s 4
f 68/107/45 71/108/45 69/109/45 65/110/45 
s 1
f 70/106/46 69/105/46 71/111/46 72/112/46 
s 2
f 72/103/47 71/104/47 68/111/47 67/112/47 
s 4
f 66/113/48 70/114/48 72/115/48 67/116/48 
# 6 polygons

#
# object 3dSolid
#

v  -1368.8503 -130.1978 2685.4700
v  -1410.8503 -130.1978 2685.4700
v  -1429.8503 -111.1978 2666.4700
v  -1349.8503 -111.1978 2666.4700
v  -1368.8503 -130.1978 3417.4700
v  -1410.8503 -130.1978 3417.4700
v  -1349.8503 -111.1978 3436.4700
v  -1429.8503 -111.1978 3436.4700
# 8 vertices

vn -0.0000 -0.7071 -0.7071
vn 0.0000 -1.0000 -0.0000
vn 0.7071 -0.7071 -0.0000
vn 0.0000 -0.7071 0.7071
vn -0.7071 -0.7071 0.0000
vn 0.0000 1.0000 -0.0000
# 6 vertex normals

vt 0.9748 -0.3414 0.1625
vt 0.9748 -0.3990 0.1625
vt 0.9995 -0.4250 0.8375
vt 0.9995 -0.3154 0.8375
vt 0.0252 -0.3414 0.1625
vt 0.0252 -0.3990 0.1625
vt 0.0005 -0.3154 0.8375
vt 0.0005 -0.4250 0.8375
# 8 texture coords

g 3dSolid
usemtl wire_255255255
s 1
f 73/117/49 74/118/49 75/119/49 76/120/49 
s 2
f 74/118/50 73/117/50 77/121/50 78/122/50 
s 4
f 77/121/51 73/117/51 76/120/51 79/123/51 
s 1
f 79/123/52 80/124/52 78/122/52 77/121/52 
s 4
f 80/124/53 75/119/53 74/118/53 78/122/53 
s 2
f 76/123/54 75/124/54 80/119/54 79/120/54 
# 6 polygons

#
# object 3dSolid
#

v  -159.8502 -441.1978 2666.4700
v  -159.8501 -441.1978 3436.4700
v  -140.8501 -460.1978 3417.4700
v  -140.8502 -460.1978 2685.4700
v  -1368.8505 -460.1978 2685.4700
v  -1349.8505 -441.1978 2666.4700
v  -1368.8503 -460.1978 3417.4700
v  -1349.8503 -441.1978 3436.4700
# 8 vertices

vn 0.7071 0.7071 -0.0000
vn -0.0000 -0.7071 -0.7071
vn 0.0000 -1.0000 -0.0000
vn -0.7071 0.7071 0.0000
vn 0.0000 1.0000 -0.0000
vn 0.0000 -0.7071 0.7071
# 6 vertex normals

vt 0.9028 0.0092 0.9668
vt 0.0972 0.0092 0.9668
vt 0.1171 -0.0065 0.0332
vt 0.8829 -0.0065 0.0332
vt 0.1171 1.0065 0.0332
vt 0.0972 0.9908 0.9668
vt 0.8829 1.0065 0.0332
vt 0.9028 0.9908 0.9668
# 8 texture coords

g 3dSolid
usemtl wire_255255255
s 1
f 81/125/55 82/126/55 83/127/55 84/128/55 
s 2
f 84/127/56 85/129/56 86/130/56 81/126/56 
s 4
f 85/129/57 84/127/57 83/128/57 87/131/57 
s 1
f 88/130/58 86/132/58 85/131/58 87/129/58 
s 4
f 81/125/59 86/132/59 88/130/59 82/126/59 
s 2
f 82/125/60 88/132/60 87/131/60 83/128/60 
# 6 polygons

#
# object 3dSolid
#

v  -1349.8503 -111.1978 2666.4700
v  -1349.8503 -441.1978 2666.4700
v  -1368.8503 -460.1978 2685.4700
v  -1368.8503 -130.1978 2685.4700
v  -1368.8503 -460.1978 3417.4700
v  -1368.8503 -130.1978 3417.4700
v  -1349.8503 -441.1978 3436.4700
v  -1349.8503 -111.1978 3436.4700
# 8 vertices

vn -0.7071 0.0000 -0.7071
vn -1.0000 0.0000 0.0000
vn 0.7071 -0.7071 -0.0000
vn -0.7071 0.7071 0.0000
vn 1.0000 0.0000 -0.0000
vn -0.7071 0.0000 0.7071
# 6 vertex normals

vt -0.0741 0.8594 0.0005
vt -0.0741 0.1798 0.0005
vt -0.0458 0.1406 0.9995
vt -0.0458 0.8202 0.9995
vt 1.0458 0.1406 0.9995
vt 1.0458 0.8202 0.9995
vt 1.0741 0.1798 0.0005
vt 1.0741 0.8594 0.0005
# 8 texture coords

g 3dSolid
usemtl wire_255255255
s 1
f 89/133/61 90/134/61 91/135/61 92/136/61 
s 2
f 92/136/62 91/135/62 93/137/62 94/138/62 
s 4
f 93/135/63 91/137/63 90/139/63 95/134/63 
f 96/140/64 89/133/64 92/136/64 94/138/64 
s 2
f 90/139/65 89/140/65 96/133/65 95/134/65 
s 1
f 96/140/66 94/138/66 93/137/66 95/139/66 
# 6 polygons

#
# object 3dSolid
#

v  -98.8501 -502.1978 3417.4700
v  -98.8501 -521.1978 3417.4700
v  -98.8502 -521.1978 2685.4700
v  -98.8502 -502.1978 2685.4700
v  -1410.8505 -521.1978 2685.4700
v  -1410.8505 -502.1978 2685.4700
v  -1410.8503 -521.1978 3417.4700
v  -1410.8503 -502.1978 3417.4700
# 8 vertices

vn 1.0000 0.0000 -0.0000
vn -0.0000 0.0000 -1.0000
vn 0.0000 -1.0000 -0.0000
vn 0.0000 1.0000 -0.0000
vn 0.0000 0.0000 1.0000
vn -1.0000 0.0000 0.0000
# 6 vertex normals

vt 0.0005 0.9995 0.0005
vt 0.0005 0.0005 0.0005
vt 0.9995 0.0005 0.0005
vt 0.9995 0.9995 0.0005
vt 0.0005 0.0005 0.9995
vt 0.9995 0.0005 0.9995
vt 0.9995 0.9995 0.9995
vt 0.0005 0.9995 0.9995
# 8 texture coords

g 3dSolid
usemtl wire_255255255
s 1
f 97/141/67 98/142/67 99/143/67 100/144/67 
s 2
f 101/143/68 102/144/68 100/141/68 99/142/68 
s 4
f 101/142/69 99/143/69 98/144/69 103/141/69 
f 100/145/70 102/146/70 104/147/70 97/148/70 
s 2
f 104/148/71 103/145/71 98/146/71 97/147/71 
s 1
f 102/148/72 101/145/72 103/146/72 104/147/72 
# 6 polygons

#
# object 3dSolid
#

v  -159.8502 -138.1978 2685.4700
v  -159.8502 -140.1978 2685.4700
v  -159.8502 -159.1978 2666.4700
v  -159.8502 -119.1978 2666.4700
v  -1349.8503 -159.1978 2666.4700
v  -1349.8503 -119.1978 2666.4700
v  -1349.8503 -140.1978 2685.4700
v  -1349.8503 -138.1978 2685.4700
# 8 vertices

vn 1.0000 0.0000 -0.0000
vn -0.0000 0.0000 -1.0000
vn 0.0000 -0.7071 0.7071
vn 0.0000 0.7071 0.7071
vn 0.0000 0.0000 1.0000
vn -1.0000 0.0000 0.0000
# 6 vertex normals

vt 0.0005 0.5034 -0.0045
vt 0.0005 0.4966 -0.0045
vt 0.9995 0.4321 -0.0045
vt 0.9995 0.5679 -0.0045
vt 1.0045 0.4321 0.0005
vt 1.0045 0.5679 0.0005
vt -0.0045 0.5679 0.0005
vt -0.0045 0.4321 0.0005
vt 1.0045 0.4966 0.9995
vt -0.0045 0.4966 0.9995
vt -0.0045 0.5034 0.9995
vt 1.0045 0.5034 0.9995
vt 0.0005 0.5679 1.0045
vt 0.0005 0.4321 1.0045
vt 0.9995 0.4966 1.0045
vt 0.9995 0.5034 1.0045
# 16 texture coords

g 3dSolid
usemtl wire_255255255
s 1
f 105/149/73 106/150/73 107/151/73 108/152/73 
s 2
f 109/153/74 110/154/74 108/155/74 107/156/74 
s 4
f 106/157/75 111/158/75 109/156/75 107/153/75 
f 108/154/76 110/155/76 112/159/76 105/160/76 
s 2
f 112/159/77 111/158/77 106/157/77 105/160/77 
s 1
f 110/161/78 109/162/78 111/163/78 112/164/78 
# 6 polygons

#
# object 3dSolid
#

v  -159.8501 -138.1978 3417.4700
v  -159.8502 -138.1978 2685.4700
v  -159.8502 -119.1978 2666.4700
v  -159.8501 -119.1978 3436.4700
v  -1349.8503 -119.1978 3436.4700
v  -1349.8503 -138.1978 3417.4700
v  -1349.8505 -119.1978 2666.4700
v  -1349.8505 -138.1978 2685.4700
# 8 vertices

vn 1.0000 0.0000 -0.0000
vn 0.0000 -0.7071 0.7071
vn 0.0000 1.0000 -0.0000
vn 0.0000 -1.0000 -0.0000
vn -1.0000 0.0000 0.0000
vn -0.0000 -0.7071 -0.7071
# 6 vertex normals

vt -0.0936 0.0005 0.0005
vt 1.0936 0.0005 0.0005
vt 1.1244 0.9995 0.0005
vt -0.1244 0.9995 0.0005
vt 0.9995 1.1244 0.9995
vt 0.0005 1.1244 0.9995
vt 0.0005 1.0936 0.0005
vt 0.9995 1.0936 0.0005
vt 0.0005 -0.1244 0.9995
vt 0.9995 -0.1244 0.9995
vt 0.0005 -0.0936 0.0005
vt 0.9995 -0.0936 0.0005
vt 1.0936 0.0005 0.9995
vt 1.1244 0.9995 0.9995
vt -0.1244 0.9995 0.9995
vt -0.0936 0.0005 0.9995
# 16 texture coords

g 3dSolid
usemtl wire_255255255
s 1
f 113/165/79 114/166/79 115/167/79 116/168/79 
s 2
f 116/169/80 117/170/80 118/171/80 113/172/80 
s 4
f 115/173/81 119/174/81 117/169/81 116/170/81 
f 113/172/82 118/171/82 120/175/82 114/176/82 
s 1
f 118/177/83 117/178/83 119/179/83 120/180/83 
s 2
f 114/176/84 120/175/84 119/173/84 115/174/84 
# 6 polygons

#
# object 3dSolid
#

v  -159.8501 -111.1341 3436.4700
v  -159.8501 -119.1341 3436.4700
v  -159.8502 -119.1341 2666.4700
v  -159.8502 -111.1341 2666.4700
v  -1349.8505 -119.1341 2666.4700
v  -1349.8505 -111.1341 2666.4700
v  -1349.8503 -119.1341 3436.4700
v  -1349.8503 -111.1341 3436.4700
# 8 vertices

vn 1.0000 0.0000 -0.0000
vn -0.0000 0.0000 -1.0000
vn -1.0000 0.0000 0.0000
vn 0.0000 0.0000 1.0000
vn 0.0000 1.0000 -0.0000
vn 0.0000 -1.0000 -0.0000
# 6 vertex normals

vt 0.0000 1.0000 0.0000
vt 0.0000 0.0000 0.0000
vt 1.0000 0.0000 0.0000
vt 1.0000 1.0000 0.0000
# 4 texture coords

g 3dSolid
usemtl wire_255255255
s 1
f 121/181/85 122/182/85 123/183/85 124/184/85 
s 2
f 124/181/86 123/182/86 125/183/86 126/184/86 
s 1
f 126/181/87 125/182/87 127/183/87 128/184/87 
s 2
f 128/181/88 127/182/88 122/183/88 121/184/88 
s 4
f 124/182/89 126/183/89 128/184/89 121/181/89 
f 122/184/90 127/181/90 125/182/90 123/183/90 
# 6 polygons

#
# object 3dSolid
#

v  -1370.8503 -521.1978 2725.4700
v  -1370.8503 -561.1978 2725.4700
v  -1389.8503 -561.1978 2706.4700
v  -1389.8503 -521.1978 2706.4700
v  -1370.8503 -521.1978 3377.4700
v  -1370.8503 -561.1978 3377.4700
v  -1389.8503 -521.1978 3396.4700
v  -1389.8503 -561.1978 3396.4700
# 8 vertices

vn 0.7071 0.0000 -0.7071
vn 1.0000 0.0000 -0.0000
vn 0.0000 1.0000 -0.0000
vn 0.7071 0.0000 0.7071
vn 0.0000 -1.0000 -0.0000
vn -1.0000 0.0000 0.0000
# 6 vertex normals

vt 0.9846 0.5461 0.0280
vt 0.9846 0.4539 0.0280
vt 0.9995 0.4539 0.0005
vt 0.9995 0.5461 0.0005
vt 0.9720 0.4539 0.0154
vt 0.9720 0.5461 0.0154
vt 0.0280 0.5461 0.0154
vt 0.0280 0.4539 0.0154
vt 0.0280 0.0154 0.5461
vt 0.0005 0.0005 0.5461
vt 0.9995 0.0005 0.5461
vt 0.9720 0.0154 0.5461
vt 0.0154 0.4539 0.9720
vt 0.0154 0.5461 0.9720
vt 0.0005 0.5461 0.9995
vt 0.0005 0.4539 0.9995
vt 0.0005 0.0005 0.4539
vt 0.9995 0.0005 0.4539
vt 0.9720 0.0154 0.4539
vt 0.0280 0.0154 0.4539
vt 0.0005 0.5461 0.0005
vt 0.0005 0.4539 0.0005
# 22 texture coords

g 3dSolid
usemtl wire_255255255
s 1
f 129/185/91 130/186/91 131/187/91 132/188/91 
s 2
f 130/189/92 129/190/92 133/191/92 134/192/92 
s 4
f 129/193/93 132/194/93 135/195/93 133/196/93 
s 1
f 134/197/94 133/198/94 135/199/94 136/200/94 
s 4
f 136/201/95 131/202/95 130/203/95 134/204/95 
s 2
f 132/205/96 131/206/96 136/187/96 135/188/96 
# 6 polygons

#
# object 3dSolid001
#

v  -1349.8501 -138.1999 3417.4702
v  -1349.8501 -140.1999 3417.4702
v  -1349.8501 -159.1999 3436.4702
v  -1349.8501 -119.1999 3436.4702
v  -159.8499 -159.1998 3436.4697
v  -159.8499 -119.1998 3436.4697
v  -159.8499 -140.1998 3417.4697
v  -159.8499 -138.1998 3417.4697
# 8 vertices

vn -1.0000 -0.0000 0.0000
vn 0.0000 0.0000 1.0000
vn -0.0000 -0.7071 -0.7071
vn -0.0000 0.7071 -0.7071
vn -0.0000 0.0000 -1.0000
vn 1.0000 0.0000 -0.0000
# 6 vertex normals

vt 0.0005 0.5034 -0.0045
vt 0.0005 0.4966 -0.0045
vt 0.9995 0.4321 -0.0045
vt 0.9995 0.5679 -0.0045
vt 1.0045 0.4321 0.0005
vt 1.0045 0.5679 0.0005
vt -0.0045 0.5679 0.0005
vt -0.0045 0.4321 0.0005
vt 1.0045 0.4966 0.9995
vt -0.0045 0.4966 0.9995
vt -0.0045 0.5034 0.9995
vt 1.0045 0.5034 0.9995
vt 0.0005 0.5679 1.0045
vt 0.0005 0.4321 1.0045
vt 0.9995 0.4966 1.0045
vt 0.9995 0.5034 1.0045
# 16 texture coords

g 3dSolid001
usemtl wire_255255255
s 1
f 137/207/97 138/208/97 139/209/97 140/210/97 
s 2
f 141/211/98 142/212/98 140/213/98 139/214/98 
s 4
f 138/215/99 143/216/99 141/214/99 139/211/99 
f 140/212/100 142/213/100 144/217/100 137/218/100 
s 2
f 144/217/101 143/216/101 138/215/101 137/218/101 
s 1
f 142/219/102 141/220/102 143/221/102 144/222/102 
# 6 polygons

#
# object 3dSolid002
#

v  -1368.8501 -130.1999 3417.4702
v  -1410.8501 -130.1999 3417.4702
v  -1429.8502 -111.1999 3436.4702
v  -1349.8502 -111.1999 3436.4702
v  -1410.8501 -521.2000 3417.4702
v  -1429.8501 -521.2000 3436.4702
v  -1349.8501 -441.1999 3436.4702
v  -1368.8501 -460.1999 3417.4702
v  -159.8499 -441.1997 3436.4697
v  -140.8499 -460.1997 3417.4697
v  -98.8499 -130.1997 3417.4697
v  -98.8499 -521.1997 3417.4697
v  -140.8499 -130.1997 3417.4697
v  -159.8500 -111.1997 3436.4697
v  -79.8500 -111.1997 3436.4697
v  -79.8499 -521.1997 3436.4697
# 16 vertices

vn -0.0000 0.7071 -0.7071
vn -0.7071 -0.0000 -0.7071
vn 0.7071 0.0000 -0.7071
vn -0.0000 0.0000 -1.0000
vn 0.0000 -1.0000 -0.0000
vn 0.0000 0.0000 1.0000
# 6 vertex normals

vt 1.6650 0.8597 0.9995
vt 1.7447 0.8597 0.9995
vt 1.7808 0.8964 0.0005
vt 1.6290 0.8964 0.0005
vt 1.7447 0.1036 0.9995
vt 1.7808 0.1036 0.0005
vt 1.6290 0.2583 0.0005
vt 1.6650 0.2215 0.9995
vt -0.6290 0.2583 0.0005
vt -0.6650 0.2215 0.9995
vt -0.7447 0.8597 0.9995
vt -0.7447 0.1036 0.9995
vt -0.6650 0.8597 0.9995
vt -0.6290 0.8964 0.0005
vt -0.7808 0.8964 0.0005
vt -0.7808 0.1036 0.0005
vt 1.7447 0.9995 0.1036
vt -0.7447 0.9995 0.1036
vt -0.7808 0.0005 0.1036
vt 1.7808 0.0005 0.1036
# 20 texture coords

g 3dSolid002
usemtl wire_255255255
s 1
f 145/223/103 146/224/103 147/225/103 148/226/103 
s 2
f 147/225/104 146/224/104 149/227/104 150/228/104 
f 148/226/105 151/229/105 152/230/105 145/223/105 
s 1
f 151/229/103 153/231/103 154/232/103 152/230/103 
s 4
f 154/232/106 155/233/106 156/234/106 152/230/106 
f 157/235/106 155/233/106 154/232/106 
f 156/234/106 149/227/106 146/224/106 152/230/106 
f 146/224/106 145/223/106 152/230/106 
s 1
f 158/236/103 159/237/103 155/233/103 157/235/103 
s 2
f 159/237/105 160/238/105 156/234/105 155/233/105 
f 158/236/104 157/235/104 154/232/104 153/231/104 
s 1
f 149/239/107 156/240/107 160/241/107 150/242/107 
s 4
f 147/237/108 150/238/108 160/228/108 151/231/108 
f 147/237/108 151/231/108 148/236/108 
f 159/225/108 158/226/108 153/229/108 160/228/108 
f 153/229/108 151/231/108 160/228/108 
# 12 polygons - 4 triangles

#
# object 3dSolid003
#

v  -1429.8497 -111.1978 3436.4700
v  -1429.8497 -521.1978 3436.4700
v  -1410.8497 -521.1978 3417.4700
v  -1410.8497 -130.1978 3417.4700
v  -1410.8500 -521.1978 2685.4700
v  -1410.8500 -130.1978 2685.4700
v  -1429.8500 -111.1978 2666.4700
v  -1429.8500 -521.1978 2666.4700
# 8 vertices

vn 0.7071 0.0000 0.7071
vn 1.0000 0.0000 -0.0000
vn 0.7071 0.7071 -0.0000
vn 0.7071 0.0000 -0.7071
vn 0.0000 -1.0000 -0.0000
vn -1.0000 0.0000 0.0000
# 6 vertex normals

vt 0.0332 0.8161 0.0580
vt 0.0332 0.1839 0.0580
vt 0.0562 0.1839 0.9420
vt 0.0562 0.7868 0.9420
vt 0.9438 0.1839 0.9420
vt 0.9438 0.7868 0.9420
vt 0.9668 0.8161 0.0580
vt 0.9668 0.1839 0.0580
vt 0.9420 0.0332 0.1839
vt 0.9420 0.9668 0.1839
vt 0.0580 0.9438 0.1839
vt 0.0580 0.0562 0.1839
# 12 texture coords

g 3dSolid003
usemtl wire_255255255
s 1
f 161/243/109 162/244/109 163/245/109 164/246/109 
s 2
f 165/247/110 166/248/110 164/246/110 163/245/110 
s 4
f 164/246/111 166/248/111 167/249/111 161/243/111 
s 1
f 167/249/112 166/248/112 165/247/112 168/250/112 
s 4
f 162/251/113 168/252/113 165/253/113 163/254/113 
s 2
f 167/243/114 168/244/114 162/250/114 161/249/114 
# 6 polygons

